<svg width="155" height="19" viewBox="0 0 155 19" fill="none" xmlns="http://www.w3.org/2000/svg">
<path d="M4.57501 15.7064L4.82111 15.6829C5.07892 15.6439 5.34064 15.6087 5.60626 15.5775C5.8797 15.5384 6.16095 15.4915 6.45001 15.4368C7.14532 15.3196 7.69611 15.1946 8.10236 15.0618C8.61798 12.929 8.87579 10.6946 8.87579 8.3587C8.87579 7.4837 8.83282 6.72589 8.74689 6.08527C6.62189 5.68683 3.92657 5.48761 0.66095 5.48761H0.344543L0.871887 2.65167H1.11798C4.08673 2.65167 6.66876 2.88995 8.86407 3.36652C9.28595 3.45245 9.59845 3.53448 9.80157 3.61261C10.0125 3.69073 10.2195 3.82355 10.4227 4.01105C10.6258 4.19855 10.825 4.40558 11.0203 4.63214C11.4734 5.18683 11.7156 5.6087 11.7469 5.89777C11.8094 6.47589 11.8406 7.12433 11.8406 7.84308C11.8406 8.56183 11.8094 9.31964 11.7469 10.1165C11.6844 10.9134 11.5906 11.6985 11.4656 12.472C11.2078 14.1517 10.8602 15.5267 10.4227 16.597C10.3289 16.8392 10.2234 17.015 10.1063 17.1243C9.99689 17.2259 9.77032 17.3353 9.42657 17.4525C9.08282 17.5618 8.65704 17.6673 8.14923 17.7689C7.64923 17.8704 7.09064 17.9564 6.47345 18.0267C5.32501 18.1595 3.79376 18.2728 1.8797 18.3665V7.13995L4.76251 6.51886L4.80939 9.03839L4.57501 15.7064ZM14.4891 10.3509C14.4891 9.30402 14.5984 8.69855 14.8172 8.53448C15.0359 8.37042 15.282 8.20636 15.5555 8.0423C15.8289 7.87042 16.1297 7.70245 16.4578 7.53839C16.7859 7.37433 17.1258 7.21808 17.4774 7.06964C17.8367 6.9212 18.1883 6.78839 18.532 6.6712C19.2664 6.4212 19.8133 6.2962 20.1727 6.2962C20.5399 6.2962 20.8367 6.31573 21.0633 6.3548C21.2899 6.38605 21.4969 6.44073 21.6844 6.51886C22.1141 6.69855 22.3563 6.96027 22.4109 7.30402C22.6688 8.93683 22.7977 10.8821 22.7977 13.14V13.8314L17.1844 13.9017V15.4251C17.7938 15.5735 18.5203 15.7103 19.3641 15.8353L21.3797 16.1634C21.8953 16.2415 22.4227 16.3314 22.9617 16.4329L22.2703 18.9993C20.1219 18.6634 17.8406 18.1204 15.4266 17.3704C14.8719 17.1907 14.5867 16.8665 14.5711 16.3978L14.4891 10.3509ZM20.1609 11.3118C20.1609 10.5775 20.0867 9.80402 19.9383 8.99152C19.6258 8.99152 19.3758 9.00714 19.1883 9.03839C19.0008 9.06964 18.8133 9.11261 18.6258 9.1673C18.4383 9.22198 18.2469 9.28448 18.0516 9.3548C17.5906 9.51886 17.2859 9.65948 17.1375 9.77667V11.886L20.1609 11.5579V11.3118ZM28.1063 18.2259C28.1063 18.2259 27.5594 16.3431 26.4656 12.5775C26.4656 12.5775 25.907 10.7337 24.7899 7.0462L27.8836 6.2962L29.4422 13.4329L29.7117 15.9759L30.3328 15.929L31.0125 12.9525C31.1922 12.1712 31.3484 11.386 31.4813 10.597L32.2078 6.44855L35.1961 6.77667C34.618 9.5423 33.8563 12.347 32.9109 15.1907L31.8914 18.1087C31.0008 18.2337 30.2547 18.2962 29.6531 18.2962C29.0516 18.2962 28.5359 18.2728 28.1063 18.2259ZM37.5867 7.2337L40.3289 6.75323L40.3992 8.96808V10.304L43.7859 9.68292C44.2625 8.92511 44.5008 8.06183 44.5008 7.09308C44.5008 6.83527 44.4774 6.59308 44.4305 6.36652C42.5086 5.82745 39.7899 5.55792 36.2742 5.55792L36.6961 2.76886C40.1727 2.81573 43.1492 3.1048 45.6258 3.63605C45.993 3.7298 46.3992 4.13214 46.8445 4.84308C47.2664 5.51495 47.4774 5.9837 47.4774 6.24933C47.4774 6.51495 47.4578 6.7962 47.4188 7.09308C47.3797 7.38214 47.3211 7.69464 47.243 8.03058C46.9539 9.27277 46.6414 10.0462 46.3055 10.3509C46.0867 10.554 45.4695 10.8118 44.4539 11.1243L44.4305 11.2181L46.7625 12.2728C46.8719 12.7415 46.9266 13.2064 46.9266 13.6673C46.9266 14.1204 46.8992 14.5189 46.8445 14.8626C46.7899 15.2064 46.7234 15.5306 46.6453 15.8353C46.3797 16.7884 46.0945 17.3665 45.7899 17.5696C45.3055 17.89 43.4656 18.1946 40.2703 18.4837C39.2781 18.5696 38.4969 18.6204 37.9266 18.636L37.5867 7.2337ZM40.5633 16.1634C42.0086 16.0384 43.0633 15.8704 43.7274 15.6595C43.9695 14.8626 44.0906 14.265 44.0906 13.8665C44.0906 13.4603 44.0789 13.1556 44.0555 12.9525C44.0399 12.7415 43.9734 12.5892 43.8563 12.4954L40.493 12.1556L40.5633 16.1634ZM50.2195 9.06183L50.1961 6.89386L52.6922 6.63605L53.1024 8.4173L54.8953 6.44855H56.2899L56.8758 9.19073C56.8758 9.19073 56.2625 9.32355 55.0359 9.58917C54.45 9.71417 53.8445 9.85089 53.2195 9.99933L53.0555 18.015L50.407 18.2493L50.2195 9.06183ZM66.2977 18.9993C63.0789 18.6712 60.5555 18.1829 58.7274 17.5345C58.3914 17.4095 58.1688 16.6907 58.0594 15.3782C57.9656 14.1751 58.0672 13.1321 58.3641 12.2493C58.4891 11.8821 58.6375 11.679 58.8094 11.64C59.5438 11.4446 60.3172 11.304 61.1297 11.2181L63.5672 10.9485L63.5203 9.2962C62.6688 9.13214 61.8211 9.00323 60.9774 8.90948C60.1414 8.80792 59.3094 8.69073 58.4813 8.55792L59.1024 5.99152L61.0828 6.28448C62.8953 6.55011 64.3367 6.87433 65.407 7.25714C65.9227 7.44464 66.1805 7.82355 66.1805 8.39386L66.2274 14.8157L63.7313 15.0618L63.6609 13.0579L62.993 13.1868C62.243 13.3118 61.5281 13.4681 60.8484 13.6556C60.7625 14.0696 60.7195 14.4134 60.7195 14.6868C60.7195 15.0853 60.7352 15.3939 60.7664 15.6126C61.868 15.8626 63.5672 16.1165 65.8641 16.3743L66.825 16.4798L66.2977 18.9993ZM72.2274 0.51886C72.3133 0.823547 72.3563 1.1673 72.3563 1.55011C72.3563 1.92511 72.3445 2.24542 72.3211 2.51105C72.2977 2.76886 72.2703 3.01105 72.2391 3.23761C72.1609 3.7298 72.0711 4.06573 71.9695 4.24542L69.2742 4.12823C69.407 3.44073 69.4734 2.34308 69.4734 0.835266L72.2274 0.51886ZM72.1336 6.42511C72.1727 7.2298 72.1922 7.90558 72.1922 8.45245C72.1922 8.99933 72.1805 9.63995 72.157 10.3743L71.8875 18.1556L69.3914 18.3665L69.157 6.80011L72.1336 6.42511ZM75.368 6.95245L77.8641 6.63605L78.2742 8.4173L80.3367 6.63605H83.2195C83.368 6.63605 83.575 6.74933 83.8406 6.97589C84.2859 7.34308 84.5086 7.6712 84.5086 7.96027L84.0984 18.179L81.4852 18.39L81.4383 9.34308C81.3445 9.31183 81.2156 9.2962 81.0516 9.2962C80.8875 9.2962 80.7352 9.30402 80.5945 9.31964C80.4617 9.33527 80.3172 9.3587 80.1609 9.38995C79.7938 9.45245 79.493 9.52667 79.2586 9.61261L78.3914 9.92902L78.075 18.0618L75.5789 18.2493L75.368 6.95245ZM87.1336 16.2806C87.1336 16.2806 87.9695 16.2298 89.6414 16.1282C90.4149 16.0814 91.1922 16.0032 91.9734 15.8939L92.0555 14.4173L87.9422 12.8001C87.7 12.7064 87.5164 12.5267 87.3914 12.261C87.2664 11.9876 87.2039 11.7728 87.2039 11.6165C87.2039 11.4603 87.2039 11.3626 87.2039 11.3235C87.2117 11.2767 87.2234 11.1712 87.2391 11.0071L87.4969 8.7923C87.575 8.1673 87.8914 7.7337 88.4461 7.49152C88.7899 7.33527 89.2234 7.19464 89.7469 7.06964C90.8172 6.81964 91.5672 6.65167 91.9969 6.56573L93.1336 6.31964C93.4617 6.25714 93.7547 6.20245 94.0125 6.15558L94.5516 8.83917L89.9813 9.51886L89.7938 10.6439L94.118 12.6595C94.6414 12.9017 94.8641 13.3665 94.7859 14.054L94.4695 16.8782C94.3992 17.4798 93.9109 17.8821 93.0047 18.0853C92.0359 18.3509 90.9617 18.5462 89.782 18.6712C88.6102 18.804 87.8367 18.8782 87.4617 18.8939L87.1336 16.2806ZM96.9656 15.7532C99.2547 15.5814 101.009 15.3196 102.227 14.9681C102.282 14.6087 102.309 14.2025 102.309 13.7493C102.309 13.2884 102.298 12.8626 102.274 12.472L98.1141 10.9603C97.8328 10.8587 97.6219 10.6751 97.4813 10.4095C97.3406 10.136 97.2352 9.78058 97.1649 9.34308C97.0086 8.38214 96.9305 7.64777 96.9305 7.13995C96.9305 6.33527 96.95 5.75323 96.9891 5.39386C97.0516 4.75323 97.4617 4.31964 98.2195 4.09308C99.993 3.45245 102.079 2.92511 104.477 2.51105L105.192 5.33527L103.692 5.5462C102.208 5.76495 100.973 5.99933 99.9891 6.24933C99.9578 6.45245 99.9422 6.71808 99.9422 7.0462C99.9422 7.71808 99.9578 8.24542 99.9891 8.62823L104.313 10.5267C104.79 10.7298 105.11 11.0853 105.274 11.5931C105.321 11.7415 105.345 11.847 105.345 11.9095C105.345 11.972 105.337 12.1087 105.321 12.3196C105.313 12.5228 105.298 12.7962 105.274 13.14C105.212 14.0618 105.134 14.8548 105.04 15.5189C104.946 16.1751 104.716 16.6243 104.348 16.8665C103.989 17.1009 103.548 17.3118 103.024 17.4993C102.509 17.679 101.95 17.8431 101.348 17.9915C100.372 18.2181 99.0789 18.4485 97.4695 18.6829L96.9656 15.7532ZM107.97 3.84698L110.829 3.2962V6.97589L113.77 6.42511L113.993 9.08527L110.876 9.31964L110.653 15.6595C111.231 15.8392 111.731 15.9798 112.153 16.0814C113.208 16.3314 113.852 16.4876 114.087 16.5501L113.466 18.9993C111.731 18.6165 110.212 18.1751 108.907 17.6751C108.376 17.4798 108.11 17.1282 108.11 16.6204L107.97 3.84698ZM117.766 18.0384C117.555 18.015 117.325 17.8626 117.075 17.5814C116.669 17.1517 116.458 16.7454 116.442 16.3626L116.208 6.7298L118.95 6.43683L119.231 15.5071C119.497 15.64 119.786 15.7064 120.098 15.7064C120.552 15.7064 121.274 15.4681 122.266 14.9915L122.536 6.61261H125.243L125.067 18.0384L123.122 18.2728L122.618 16.3978L120.169 18.1321L117.766 18.0384ZM129.016 17.5814C128.634 17.5032 128.399 17.1634 128.313 16.5618C128.173 15.5462 128.102 14.4681 128.102 13.3275C128.102 11.4134 128.263 9.61652 128.583 7.93683C128.661 7.53058 128.856 7.27277 129.169 7.16339L130.341 6.88214C131.598 6.57745 132.813 6.35089 133.985 6.20245V1.39777L136.704 0.89386L136.774 6.2962L136.528 14.5345L134.055 14.7689L133.962 8.74542C133.016 8.81573 132.13 9.00714 131.302 9.31964C131.075 10.7181 130.962 11.8743 130.962 12.7884C130.962 14.0931 130.993 14.972 131.055 15.4251C132.032 15.6829 133.196 15.9017 134.548 16.0814C135.907 16.261 136.841 16.3939 137.348 16.4798L136.622 18.9993C133.591 18.5228 131.72 18.2103 131.009 18.0618C130.305 17.9134 129.641 17.7532 129.016 17.5814ZM143.055 0.51886C143.141 0.823547 143.184 1.1673 143.184 1.55011C143.184 1.92511 143.173 2.24542 143.149 2.51105C143.126 2.76886 143.098 3.01105 143.067 3.23761C142.989 3.7298 142.899 4.06573 142.798 4.24542L140.102 4.12823C140.235 3.44073 140.302 2.34308 140.302 0.835266L143.055 0.51886ZM142.962 6.42511C143.001 7.2298 143.02 7.90558 143.02 8.45245C143.02 8.99933 143.009 9.63995 142.985 10.3743L142.716 18.1556L140.22 18.3665L139.985 6.80011L142.962 6.42511ZM148.927 11.2181C148.927 13.1009 149.024 14.7337 149.22 16.1165L151.528 15.9993C151.95 14.3275 152.161 12.6946 152.161 11.1009C152.161 10.4603 152.118 9.88995 152.032 9.38995C151.563 9.15558 149.907 9.03839 147.063 9.03839H146.466C146.302 9.03839 146.122 9.0462 145.927 9.06183L146.43 6.34308C146.563 6.33527 146.684 6.32745 146.794 6.31964C146.911 6.30402 147.028 6.2962 147.145 6.2962L147.497 6.27277C147.614 6.27277 147.942 6.27277 148.481 6.27277C150.028 6.27277 151.723 6.4798 153.567 6.89386C154.153 7.0423 154.513 7.30402 154.645 7.67902C154.848 8.25714 154.95 9.19855 154.95 10.5032C154.95 12.886 154.587 15.1907 153.86 17.4173C153.798 17.6204 153.723 17.7923 153.638 17.9329C153.559 18.0735 153.419 18.1634 153.216 18.2025C153.013 18.2493 152.774 18.2923 152.501 18.3314C152.227 18.3704 151.958 18.4056 151.692 18.4368C151.114 18.4915 150.716 18.5189 150.497 18.5189C150.278 18.5189 150.044 18.515 149.794 18.5071C149.544 18.5071 149.27 18.4993 148.973 18.4837C148.192 18.4446 147.665 18.3743 147.391 18.2728C147.118 18.179 146.93 18.015 146.829 17.7806C146.735 17.5462 146.641 17.1712 146.548 16.6556C146.329 15.4525 146.22 14.0814 146.22 12.5423C146.22 11.9564 146.235 11.3743 146.266 10.7962L148.927 10.2689V11.2181Z" fill="black"/>
</svg>
